<?xml version="1.0" standalone="no"?>
<!DOCTYPE svg PUBLIC "-//W3C//DTD SVG 20010904//EN"
 "http://www.w3.org/TR/2001/REC-SVG-20010904/DTD/svg10.dtd">
<svg version="1.0" xmlns="http://www.w3.org/2000/svg"
 width="320.000000pt" height="320.000000pt" viewBox="0 0 320.000000 320.000000"
 preserveAspectRatio="xMidYMid meet">
<metadata>
Created by potrace 1.14, written by Peter Selinger 2001-2017
</metadata>
<g transform="translate(0.000000,320.000000) scale(0.100000,-0.100000)"
fill="#000000" stroke="none">
<path d="M0 2251 l0 -950 35 15 c19 8 68 17 109 21 69 5 81 3 156 -27 75 -30
140 -77 140 -101 0 -6 13 -29 29 -52 54 -78 63 -114 56 -202 -4 -44 -12 -89
-19 -100 -7 -11 -16 -45 -20 -75 -4 -30 -11 -57 -16 -60 -11 -7 -16 -102 -6
-118 4 -6 -4 -18 -19 -28 -21 -14 -23 -19 -13 -31 7 -8 11 -27 10 -42 -1 -17
6 -35 18 -46 19 -17 20 -17 29 6 9 22 10 21 10 -13 1 -20 6 -40 11 -43 16 -10
12 -22 -10 -28 -24 -6 -43 -49 -26 -59 6 -5 2 -8 -10 -8 -12 0 -25 -7 -28 -16
-5 -13 -1 -15 20 -10 16 4 23 3 19 -3 -10 -18 6 -81 21 -81 8 0 14 -5 14 -11
0 -5 4 -7 10 -4 5 3 15 -14 22 -39 8 -29 15 -41 20 -33 5 8 8 4 8 -10 0 -14 6
-23 15 -23 8 0 15 9 15 20 0 11 5 20 10 20 6 0 10 -9 10 -20 0 -13 7 -20 20
-20 11 0 20 -4 20 -10 0 -5 23 -10 50 -10 28 0 50 5 50 10 0 6 9 10 20 10 13
0 20 -7 20 -20 0 -17 7 -20 40 -20 33 0 40 -3 40 -20 0 -17 7 -20 40 -20 l40
0 0 40 c0 22 -4 40 -10 40 -5 0 -10 9 -10 20 0 16 7 20 30 20 30 0 30 0 28 53
-2 52 -8 62 -57 97 -28 19 -27 40 2 40 95 1 109 11 96 67 -9 42 -2 66 17 59
21 -8 18 48 -6 94 -11 22 -20 51 -20 66 0 15 -4 43 -10 63 -30 115 -43 170
-46 201 -2 19 -8 62 -14 95 -17 107 -30 244 -24 260 12 31 24 14 24 -34 0 -27
3 -56 6 -65 12 -32 24 -15 24 34 0 36 4 50 14 50 10 0 16 -25 21 -102 7 -91 9
-99 18 -68 5 19 7 64 4 100 -3 37 -1 73 5 84 8 15 8 21 -1 24 -6 2 -11 12 -11
23 0 10 -4 19 -10 19 -5 0 -10 9 -10 20 0 12 7 20 16 20 14 0 16 8 11 57 -3
32 -11 59 -17 61 -13 5 -13 33 2 82 16 51 28 51 28 0 0 -44 15 -54 22 -16 7
35 -3 136 -13 136 -5 0 -9 15 -8 33 0 17 3 26 6 20 9 -23 23 -14 23 15 0 15 4
33 9 40 16 26 18 -11 6 -105 -6 -51 -8 -99 -3 -105 4 -8 8 10 9 42 2 72 12
116 27 112 7 -1 12 2 12 8 0 5 -6 10 -12 10 -9 0 -13 22 -13 75 -1 41 3 75 7
75 4 0 8 21 8 46 0 48 19 54 21 6 2 -26 2 -26 6 -3 3 13 -1 34 -7 47 -10 17
-10 41 0 111 7 48 12 107 12 131 -1 23 3 42 8 42 5 0 11 8 13 18 3 9 6 -19 7
-63 l3 -80 9 70 c12 89 28 108 28 35 0 -39 3 -51 10 -40 5 8 10 49 10 91 0 42
7 98 15 125 8 27 15 66 15 87 0 22 8 52 17 68 15 25 16 31 4 38 -12 8 -11 18
7 63 11 29 24 84 27 122 11 110 22 57 18 -82 l-4 -128 43 -2 c40 -2 139 -31
110 -32 -7 0 -10 -4 -7 -10 4 -6 -17 -10 -57 -10 -35 0 -69 -4 -77 -9 -15 -10
-29 -89 -30 -177 -1 -41 4 -55 22 -72 20 -19 35 -22 110 -22 54 0 88 4 93 11
5 8 0 10 -17 6 -13 -3 -35 1 -49 8 -14 8 -19 14 -11 15 8 0 11 6 7 16 -5 14 5
15 76 14 46 -1 89 -2 97 -1 10 1 12 13 9 51 -6 56 1 62 30 25 11 -14 29 -25
41 -25 19 0 21 6 21 63 0 74 -24 121 -66 131 -15 4 -39 15 -53 25 -36 24 -130
51 -179 51 -22 0 -52 4 -67 10 -22 8 -24 12 -14 28 8 12 25 19 47 20 23 1 40
9 49 22 8 11 21 20 29 20 8 0 24 10 36 22 18 18 34 23 79 23 51 0 59 2 75 28
11 16 34 35 52 42 17 8 32 19 32 24 0 16 26 13 41 -5 7 -9 22 -14 36 -11 16 3
29 -3 42 -19 29 -37 57 -31 77 16 19 44 33 37 34 -15 0 -24 2 -27 11 -15 8 12
9 11 4 -6 -3 -12 -1 -32 4 -45 l9 -24 10 27 c6 14 11 35 11 45 0 10 3 32 7 49
5 25 10 31 25 27 10 -3 19 -12 19 -19 0 -15 29 -18 68 -8 15 4 25 17 29 35 7
36 33 39 33 4 0 -47 20 -25 21 23 1 26 1 50 0 55 0 4 3 7 9 7 12 0 50 -37 50
-48 0 -5 9 -18 19 -29 11 -11 22 -34 24 -49 2 -16 3 -9 1 16 -2 25 -6 59 -8
75 l-4 30 21 -26 c12 -14 27 -35 34 -45 11 -17 12 -15 12 15 1 41 -28 90 -74
126 -20 14 -33 30 -30 36 4 5 -5 14 -19 21 -14 6 -26 15 -26 20 0 13 27 -8 97
-72 133 -123 194 -257 283 -625 12 -49 22 -98 22 -107 -1 -10 3 -20 9 -23 5
-4 9 -17 9 -31 0 -13 4 -32 9 -42 5 -9 14 -42 21 -72 7 -30 23 -89 35 -130 13
-41 38 -129 56 -195 17 -66 41 -147 51 -179 11 -33 22 -82 25 -110 3 -28 9
-53 13 -56 13 -9 31 -102 41 -205 5 -55 16 -122 23 -150 30 -110 37 -156 41
-290 6 -184 15 -269 26 -235 5 14 6 -9 3 -55 -4 -44 -6 -178 -6 -297 l0 -217
-41 -6 c-23 -3 -141 -9 -262 -14 l-220 -8 343 -1 342 -2 0 1600 0 1600 -1600
0 -1600 0 0 -949z m2243 892 c-7 -2 -21 -2 -30 0 -10 3 -4 5 12 5 17 0 24 -2
18 -5z m-1298 -291 c-11 -20 -22 -39 -25 -42 -4 -3 -16 -22 -29 -42 -27 -45
-38 -50 -16 -8 9 17 13 36 9 42 -4 7 -3 8 4 4 7 -4 12 -1 12 8 0 9 5 16 12 16
6 0 8 3 5 6 -4 4 3 20 14 36 29 40 38 26 14 -20z m503 -19 c8 -18 9 -30 2 -37
-13 -13 -16 -8 -25 32 -8 39 5 42 23 5z m109 -25 c-3 -7 -5 -2 -5 12 0 14 2
19 5 13 2 -7 2 -19 0 -25z m-1137 -147 c0 -10 7 -24 15 -31 28 -24 18 -40 -26
-40 -35 0 -40 2 -29 15 7 9 9 26 5 45 -6 26 -4 30 14 30 14 0 21 -6 21 -19z
m75 -71 c3 -5 1 -10 -4 -10 -6 0 -11 5 -11 10 0 6 2 10 4 10 3 0 8 -4 11 -10z
m185 -6 c0 -2 -9 -4 -20 -4 -11 0 -20 4 -20 9 0 5 9 7 20 4 11 -3 20 -7 20 -9z
m97 -2 c-10 -10 -17 -28 -17 -39 0 -23 -22 -36 -46 -26 -11 4 -14 14 -11 33 3
15 1 32 -6 39 -8 8 2 11 43 11 51 0 52 -1 37 -18z m-387 -37 c0 -8 -4 -15 -10
-15 -5 0 -10 7 -10 15 0 8 5 15 10 15 6 0 10 -7 10 -15z m1160 -106 c18 -7 47
-28 66 -48 43 -46 44 -59 2 -20 -18 16 -48 34 -68 40 -19 7 -39 14 -45 18 -5
3 -21 4 -34 2 -15 -2 -21 1 -17 8 9 14 54 14 96 0z m-1297 -149 c26 -1 29 -2
15 -11 -14 -8 -15 -14 -6 -34 6 -14 15 -25 20 -25 4 0 8 -4 8 -10 0 -22 -20
-8 -36 25 -9 20 -19 34 -21 31 -3 -3 -9 -29 -13 -58 -7 -51 -8 -51 -8 27 0 44
2 74 5 68 2 -7 19 -13 36 -13z m182 -49 c-4 -17 -11 -31 -17 -31 -6 0 -8 10
-4 23 3 12 6 31 6 42 0 14 3 16 11 8 7 -7 8 -24 4 -42z m-355 14 c0 -14 -4
-25 -9 -25 -4 0 -6 11 -3 25 2 14 6 25 8 25 2 0 4 -11 4 -25z m127 -207 c-3
-7 -5 -2 -5 12 0 14 2 19 5 13 2 -7 2 -19 0 -25z m811 -95 c0 -71 2 -138 6
-149 4 -12 2 -41 -4 -65 -7 -24 -15 -60 -20 -79 -7 -32 -8 -32 -9 -7 -2 39
-21 34 -21 -6 0 -19 -3 -68 -6 -110 -6 -67 -5 -77 10 -77 9 0 16 -4 16 -9 0
-6 -9 -9 -21 -8 -19 1 -20 7 -17 63 2 41 -1 65 -10 74 -8 7 -11 23 -8 38 3 15
8 60 12 101 5 60 10 74 25 78 14 4 19 15 19 43 0 21 -4 40 -8 42 -12 4 -23 78
-13 78 5 0 14 27 20 60 20 98 31 71 29 -67z m-598 -137 c0 -3 -4 -8 -10 -11
-5 -3 -10 -1 -10 4 0 6 5 11 10 11 6 0 10 -2 10 -4z m540 -506 c0 -40 -4 -70
-10 -70 -11 0 -13 61 -4 109 10 48 14 37 14 -39z m37 -52 c-3 -8 -6 -5 -6 6
-1 11 2 17 5 13 3 -3 4 -12 1 -19z m-59 -608 c0 -8 -8 17 -18 55 -9 39 -14 77
-11 85 5 14 30 -107 29 -140z m2109 93 c-3 -10 -5 -2 -5 17 0 19 2 27 5 18 2
-10 2 -26 0 -35z m-2080 -125 c-3 -8 -6 -5 -6 6 -1 11 2 17 5 13 3 -3 4 -12 1
-19z m-7 -28 c0 -5 -2 -10 -4 -10 -3 0 -8 5 -11 10 -3 6 -1 10 4 10 6 0 11 -4
11 -10z m45 -90 c-2 -40 -15 -51 -15 -13 0 24 6 43 15 43 1 0 1 -14 0 -30z
m-117 -145 c8 -16 8 -26 1 -31 -14 -8 -17 -4 -23 29 -6 34 7 35 22 2z m2187
-105 c8 -55 -9 -34 -19 25 -5 27 -4 37 3 30 5 -5 13 -30 16 -55z"/>
<path d="M2382 2780 c0 -14 2 -19 5 -12 2 6 2 18 0 25 -3 6 -5 1 -5 -13z"/>
<path d="M2246 2639 c16 -17 42 -38 58 -46 28 -15 29 -15 23 9 -4 12 -7 26 -7
31 0 4 -7 7 -15 7 -9 0 -18 7 -21 15 -4 9 -19 15 -37 15 l-31 0 30 -31z"/>
<path d="M2350 2569 c1 -15 23 -49 34 -49 12 0 6 21 -14 42 -14 15 -20 17 -20
7z"/>
<path d="M2460 2564 c0 -8 5 -12 10 -9 6 4 8 11 5 16 -9 14 -15 11 -15 -7z"/>
<path d="M2440 2522 c0 -34 -9 -45 -25 -32 -8 7 -10 -36 -7 -173 2 -100 -1
-221 -6 -269 -12 -97 -51 -203 -85 -233 -13 -11 -26 -28 -30 -37 -3 -10 -13
-18 -22 -18 -8 0 -15 -7 -15 -15 0 -7 -8 -19 -17 -24 -12 -7 -14 -10 -4 -11
11 0 11 -3 0 -17 -12 -14 -12 -15 -1 -9 12 7 12 4 2 -15 -7 -13 -16 -26 -19
-29 -3 -3 -15 -22 -26 -42 -11 -21 -23 -38 -27 -38 -5 0 -8 -7 -8 -16 0 -29
-206 -264 -232 -264 -5 0 -16 -6 -24 -14 -22 -22 -89 -30 -116 -13 -13 8 -48
15 -78 16 -59 3 -131 34 -166 73 -27 29 -40 93 -21 101 7 3 73 1 147 -3 112
-6 141 -5 167 8 18 8 29 20 26 25 -4 7 1 8 13 3 10 -4 16 -4 12 -1 -3 3 8 21
24 40 17 18 36 44 42 56 6 12 26 27 44 33 18 7 30 15 26 19 -4 4 -2 7 5 7 9 0
9 4 -1 14 -7 8 -16 12 -21 9 -4 -2 -15 10 -25 27 -33 58 -200 110 -313 96 -30
-3 -83 -9 -118 -13 -64 -6 -64 -6 -59 18 3 17 -3 31 -18 44 -12 10 -20 25 -17
32 5 12 -78 112 -100 122 -31 13 -71 -154 -97 -409 -25 -249 -40 -482 -40
-641 0 -168 22 -426 40 -458 4 -9 10 -29 13 -46 7 -39 32 -133 45 -166 6 -14
31 -46 56 -72 25 -25 46 -50 46 -55 0 -5 30 -13 66 -17 l66 -7 -6 -31 c-4 -18
-11 -34 -16 -35 -6 -2 -10 -12 -10 -23 0 -18 10 -19 254 -19 l254 0 2 223 c1
122 4 269 8 326 4 56 4 108 0 114 -4 6 -2 17 4 24 6 7 8 21 5 32 -2 10 -1 25
4 32 5 8 2 23 -6 36 -17 25 -20 93 -5 93 6 0 10 6 10 14 0 11 30 56 70 104 14
15 17 16 -76 -8 -43 -10 -80 -24 -82 -30 -4 -12 -52 -14 -52 -1 0 4 8 19 19
32 10 13 24 42 32 63 14 40 72 105 145 165 23 19 45 34 50 34 5 1 18 12 29 26
10 14 25 30 32 34 7 4 13 19 13 32 0 14 4 25 9 25 22 0 39 -13 34 -26 -7 -19
-20 -18 -27 4 -3 11 -5 8 -4 -8 1 -53 -2 -60 -24 -61 -18 -1 -17 -3 7 -8 l30
-7 -32 -8 c-39 -9 -42 -19 -10 -34 l22 -11 -25 -1 c-14 -1 -19 -4 -12 -7 19
-8 14 -84 -8 -113 -29 -37 -24 -48 8 -17 15 15 33 27 40 27 7 0 12 5 12 10 0
6 9 10 20 10 11 0 20 7 20 15 0 8 15 24 33 35 52 31 69 44 84 60 54 60 83 97
83 107 0 15 35 26 59 18 17 -5 21 1 31 52 13 64 24 84 58 102 20 10 21 15 10
28 -19 23 -40 83 -45 130 -4 34 -10 43 -34 53 -68 29 -142 130 -94 130 23 0
18 20 -10 42 -28 21 -31 44 -13 83 19 41 53 43 85 4 51 -63 143 -154 143 -143
0 6 -9 21 -20 34 -12 13 -18 30 -15 38 3 8 -1 22 -9 31 -7 9 -24 44 -36 79
-21 56 -40 81 -40 50 0 -29 -21 12 -30 58 -5 27 -16 83 -24 124 -8 41 -15 91
-15 111 -1 19 -6 40 -11 45 -6 6 -11 38 -12 73 -2 61 -18 100 -18 43z m-684
-833 c4 -8 9 -8 17 0 16 16 42 14 57 -4 7 -8 20 -15 30 -15 18 0 35 -26 22
-34 -4 -2 -41 -4 -82 -5 -69 0 -130 13 -130 28 0 14 16 29 35 34 34 8 44 7 51
-4z m-256 -69 c6 -33 4 -42 -10 -50 -24 -13 -50 17 -50 58 0 24 5 31 23 34 29
5 28 5 37 -42z m262 -54 c13 3 44 8 71 10 41 5 47 3 47 -13 0 -11 -13 -24 -31
-32 -26 -11 -38 -12 -67 -1 -25 9 -36 9 -41 1 -5 -7 -22 0 -51 22 l-45 32 40
5 c31 4 42 1 47 -12 5 -12 14 -15 30 -12z m538 -240 c0 -3 -4 -8 -10 -11 -5
-3 -10 -1 -10 4 0 6 5 11 10 11 6 0 10 -2 10 -4z"/>
<path d="M2100 2511 c-8 -6 -24 -8 -36 -5 -24 6 -47 -17 -42 -41 4 -22 118
-28 173 -9 22 8 58 14 81 14 43 0 59 -12 87 -65 19 -36 21 -30 5 16 -14 43
-48 83 -73 88 -49 9 -181 11 -195 2z"/>
<path d="M2090 2399 c11 -8 8 -9 -15 -5 -22 5 -26 4 -15 -4 13 -8 8 -14 -11
-12 -3 0 -10 -8 -17 -19 -16 -25 -1 -24 40 1 54 32 115 21 171 -31 23 -21 17
-35 -10 -24 -10 5 -20 9 -23 10 -3 1 -13 5 -23 10 -10 4 -44 5 -76 3 -45 -3
-68 -11 -96 -32 -43 -33 -39 -41 36 -62 114 -32 184 -44 224 -38 63 9 72 17
55 51 -14 29 -17 36 -19 52 -3 22 -58 75 -96 92 -44 20 -152 27 -125 8z"/>
<path d="M2522 2225 c0 -16 2 -22 5 -12 2 9 2 23 0 30 -3 6 -5 -1 -5 -18z"/>
<path d="M2058 2193 c7 -3 16 -2 19 1 4 3 -2 6 -13 5 -11 0 -14 -3 -6 -6z"/>
<path d="M2163 2183 c9 -2 23 -2 30 0 6 3 -1 5 -18 5 -16 0 -22 -2 -12 -5z"/>
<path d="M2044 2171 c9 -13 72 -41 93 -41 11 1 0 10 -27 25 -46 25 -75 32 -66
16z"/>
<path d="M2530 2173 c0 -5 5 -15 10 -23 8 -12 10 -11 10 8 0 12 -4 22 -10 22
-5 0 -10 -3 -10 -7z"/>
<path d="M1753 2153 c-12 -2 -24 -14 -27 -28 -4 -14 -15 -25 -28 -27 -13 -2
-24 -10 -26 -19 -2 -13 3 -15 23 -12 15 3 25 1 25 -6 0 -14 37 -14 46 0 6 10
17 101 11 98 -1 -1 -12 -4 -24 -6z"/>
<path d="M1700 2016 c-17 -19 -29 -24 -50 -20 -25 5 -28 3 -34 -29 -9 -49 6
-83 42 -90 48 -10 173 4 179 20 7 18 20 16 44 -8 22 -22 46 -19 55 6 9 22 -24
55 -56 55 -18 0 -42 15 -73 45 -54 51 -74 55 -107 21z"/>
<path d="M1191 1804 c0 -11 3 -14 6 -6 3 7 2 16 -1 19 -3 4 -6 -2 -5 -13z"/>
<path d="M1030 1479 c0 -5 5 -7 10 -4 6 3 10 8 10 11 0 2 -4 4 -10 4 -5 0 -10
-5 -10 -11z"/>
<path d="M1102 1465 c0 -16 2 -22 5 -12 2 9 2 23 0 30 -3 6 -5 -1 -5 -18z"/>
<path d="M2783 1337 c-39 -74 -45 -96 -45 -161 1 -38 -3 -77 -8 -86 -5 -10
-56 -53 -112 -96 -57 -43 -104 -82 -106 -86 -5 -10 -71 -87 -111 -128 -46 -47
-90 -128 -92 -171 -2 -22 5 -50 19 -73 15 -25 22 -54 22 -87 0 -36 4 -49 14
-49 9 0 18 -19 26 -53 12 -60 10 -147 -4 -147 -6 0 -5 -5 2 -12 7 -7 12 -23
12 -36 0 -21 20 -52 34 -52 3 0 6 21 6 46 0 27 6 51 15 61 14 13 16 11 21 -16
4 -17 10 -31 14 -31 15 0 30 53 31 108 0 31 4 66 9 77 7 18 8 19 15 3 13 -32
22 -19 29 40 4 31 13 74 20 96 l13 38 11 -93 c16 -139 30 -217 48 -279 14 -43
19 -50 24 -35 24 66 30 98 30 157 0 36 4 89 10 117 5 29 10 87 11 129 1 87 9
185 16 179 2 -3 6 -56 10 -118 11 -215 24 -158 39 166 3 78 -1 210 -9 330 -14
193 -14 221 2 211 4 -3 8 10 9 29 3 41 -10 52 -25 22z m-216 -689 c-3 -7 -5
-2 -5 12 0 14 2 19 5 13 2 -7 2 -19 0 -25z m9 -86 c-12 -12 -18 8 -10 35 l8
28 4 -28 c2 -16 1 -31 -2 -35z m-126 -302 c0 -11 -4 -20 -10 -20 -5 0 -10 9
-10 20 0 11 5 20 10 20 6 0 10 -9 10 -20z"/>
<path d="M2570 1120 c-24 -8 -25 -8 -3 -15 11 -4 23 -15 26 -26 9 -32 29 -22
25 13 -3 35 -11 40 -48 28z"/>
<path d="M1050 900 c0 -11 5 -20 10 -20 6 0 10 9 10 20 0 11 -4 20 -10 20 -5
0 -10 -9 -10 -20z"/>
<path d="M1063 819 c-7 -9 -9 -26 -4 -49 8 -35 8 -35 15 -9 4 15 6 37 4 50 -2
19 -5 20 -15 8z"/>
<path d="M352 266 c-7 -6 -25 -22 -39 -36 l-25 -25 24 -6 c25 -7 19 -11 -42
-28 -21 -5 -27 -10 -15 -10 15 -1 11 -6 -15 -18 -19 -9 -44 -20 -55 -24 -17
-6 -17 -7 -2 -8 20 -1 24 -21 4 -21 -12 0 -87 -74 -87 -86 0 -2 42 -4 93 -4
67 0 88 3 77 11 -11 8 -12 12 -2 16 6 2 12 16 12 30 0 14 8 32 18 40 13 11 14
16 4 20 -9 3 -2 16 22 39 19 19 38 34 41 34 8 0 35 27 35 35 0 4 10 15 23 26
18 15 19 18 5 19 -9 0 -29 -12 -43 -26 -14 -14 -29 -23 -33 -20 -3 4 0 11 7
15 7 5 11 15 9 23 -2 12 -6 13 -16 4z"/>
<path d="M3000 105 c0 -14 4 -25 9 -25 4 0 6 11 3 25 -2 14 -6 25 -8 25 -2 0
-4 -11 -4 -25z"/>
</g>
</svg>
